<?xml version="1.0" encoding="UTF-8" standalone="no"?>
<!DOCTYPE svg PUBLIC "-//W3C//DTD SVG 1.1//EN"
 "http://www.w3.org/Graphics/SVG/1.1/DTD/svg11.dtd">
<!-- Generated by graphviz version 2.26.3 (20100126.1600)
 -->
<!-- Title: G Pages: 1 -->
<svg width="354pt" height="130pt"
 viewBox="0.00 0.00 354.00 130.00" xmlns="http://www.w3.org/2000/svg" xmlns:xlink="http://www.w3.org/1999/xlink">
<g id="graph1" class="graph" transform="scale(1 1) rotate(0) translate(4 126)">
<title>G</title>
<polygon fill="white" stroke="white" points="-4,5 -4,-126 351,-126 351,5 -4,5"/>
<g id="graph2" class="cluster"><title>cluster_default</title>
<polyline fill="none" stroke="none" points="188,-8 326,-8 "/>
<path fill="none" stroke="none" d="M326,-8C332,-8 338,-14 338,-20"/>
<polyline fill="none" stroke="none" points="338,-20 338,-102 "/>
<path fill="none" stroke="none" d="M338,-102C338,-108 332,-114 326,-114"/>
<polyline fill="none" stroke="none" points="326,-114 188,-114 "/>
<path fill="none" stroke="none" d="M188,-114C182,-114 176,-108 176,-102"/>
<polyline fill="none" stroke="none" points="176,-102 176,-20 "/>
<path fill="none" stroke="none" d="M176,-20C176,-14 182,-8 188,-8"/>
</g>
<!-- \\StarBucksCollection -->
<g id="node2" class="node"><title>\\StarBucksCollection</title>
<a xlink:href="classes.StarBucksCollection.html" xlink:title="StarBucksCollection" target="_parent">
<polygon fill="none" stroke="black" points="329,-106 185,-106 185,-70 329,-70 329,-106"/>
<text text-anchor="middle" x="257" y="-85.1" font-family="Courier,monospace" font-size="11.00">StarBucksCollection</text>
</a>
</g>
<!-- \\Iterator -->
<g id="node5" class="node"><title>\\Iterator</title>
<ellipse fill="none" stroke="black" cx="56" cy="-88" rx="55.8614" ry="18.3848"/>
<text text-anchor="middle" x="56" y="-84.4" font-family="Times Roman,serif" font-size="14.00" fill="gray">\\Iterator</text>
</g>
<!-- \\StarBucksCollection&#45;&gt;\\Iterator -->
<g id="edge3" class="edge"><title>\\StarBucksCollection&#45;&gt;\\Iterator</title>
<path fill="none" stroke="black" stroke-dasharray="1,5" d="M184.434,-88C164.134,-88 142.181,-88 122.266,-88"/>
<polygon fill="none" stroke="black" points="122.057,-84.5001 112.056,-88 122.056,-91.5001 122.057,-84.5001"/>
</g>
<!-- \\StarBucks -->
<g id="node3" class="node"><title>\\StarBucks</title>
<a xlink:href="classes.StarBucks.html" xlink:title="StarBucks" target="_parent">
<polygon fill="none" stroke="black" points="295,-52 219,-52 219,-16 295,-16 295,-52"/>
<text text-anchor="middle" x="257" y="-31.1" font-family="Courier,monospace" font-size="11.00">StarBucks</text>
</a>
</g>
</g>
</svg>
